<?xml version="1.0" encoding="UTF-8"?>
<svg id="Calque_1" data-name="Calque 1" xmlns="http://www.w3.org/2000/svg" viewBox="0 0 2241 1180.5">
  <defs>
    <style>
      .cls-1 {
        fill: #59adff;
      }

      .cls-1, .cls-2, .cls-3 {
        stroke-width: 0px;
      }

      .cls-2 {
        fill: #fff;
      }

      .cls-3 {
        fill: #020101;
      }
    </style>
  </defs>
  <path class="cls-2" d="m0,0h2241v1180.5H0V0h0Zm761.25,335.25c3.75.75,6.75.75,9.75.75h150.75c4.5,0,9.75,0,15,1.5,36.75,6.75,57.75,48.75,42,82.5-11.25,22.5-29.25,34.5-54.75,35.25-20.25,0-39.75,3-59.25,10.5-45.75,18.75-77.25,51.75-93.75,98.25-9.75,27-11.25,54-6,81.75,7.5,41.25,27.75,75,61.5,100.5,29.25,21.75,62.25,32.25,99,32.25h156c1.5,0,3,0,5.25-.75.75.75,2.25.75,3.75.75h231c7.5,0,15-.75,22.5-1.5,33.75-5.25,63-19.5,87.75-42.75,36.75-36,54-78.75,49.5-130.5-4.5-64.5-48.75-123-116.25-142.5-15-4.5-30.75-6-46.5-6.75-36-.75-63-33-57.75-67.5,4.5-30,29.25-51,60.75-51h453.75c12,0,23.25.75,34.5,4.5,59.25,18,93.75,76.5,84,135-8.25,48-44.25,85.5-90.75,96-7.5,1.5-15,2.25-23.25,3-3,0-3.75.75-3.75,3.75.75.75,0,1.5,0,2.25v90c0,1.5.75,2.25,0,3.75,0,2.25,1.5,3,3.75,2.25h3.75c27-.75,52.5-6,77.25-16.5,54-23.25,93-60.75,117-114,18.75-41.25,24-84,15.75-129-9-54-35.25-98.25-77.25-133.5-40.5-33-87-49.5-138.75-49.5-152.25-.75-304.5-.75-457.5,0-19.5,0-38.25,3-57,10.5-66,24-106.5,88.5-104.25,153.75,1.5,45.75,18,84,51,115.5,27,24.75,58.5,39,95.25,42.75,9,.75,18,0,27,1.5,24.75,6,41.25,21,46.5,45.75,6,24-2.25,44.25-21.75,60-11.25,9-24,12.75-38.25,12.75h-224.25c-3,0-5.25-.75-8.25,0-2.25-.75-5.25,0-7.5,0h-152.25c-6,0-11.25-.75-16.5-1.5-30.75-7.5-48-35.25-45.75-63,3-32.25,29.25-54.75,59.25-54.75,21-.75,41.25-3.75,60.75-11.25,21-8.25,39-21,54.75-36.75,15-14.25,25.5-30.75,33.75-49.5,12-27,15.75-55.5,12-84.75-3-21-9-41.25-20.25-60-15.75-27.75-37.5-48.75-66-63-24-12.75-49.5-18-76.5-18h-165.75c-96,0-192.75,0-288.75-.75-15,0-29.25,1.5-44.25,4.5-44.25,9-83.25,29.25-114.75,62.25-54,56.25-73.5,123.75-58.5,200.25,9,48,33,88.5,69.75,120.75,39.75,35.25,87,54,141,55.5q5.25.75,5.25-5.25v-91.5c0-6,.75-5.25-5.25-5.25-19.5-1.5-38.25-6-55.5-17.25-40.5-25.5-60.75-63-57.75-110.25,3-55.5,44.25-99.75,98.25-109.5,8.25-1.5,17.25-1.5,25.5-1.5h282.75c2.25,0,5.25,0,7.5-.75h0Zm-74.25,282v-156.75q0-5.25-5.25-5.25h-213c-2.25-.75-3,.75-3,3v96.75c0,1.5.75,2.25,2.25,2.25h110.25c8.25,0,6.75-1.5,6.75,6.75v210.75c0,2.25.75,3.75,3.75,3.75h91.5c8.25,0,6.75.75,6.75-7.5v-153.75h0Zm971.25-2.25v-158.25c.75-2.25-.75-3-3-3h-91.5c-8.25,0-7.5-.75-7.5,6.75v313.5c0,2.25,1.5,3,3,3h92.25c7.5,0,6.75.75,6.75-6.75v-155.25h0Zm49.5,280.5c3-.75,5.25-2.25,7.5-3,15.75-7.5,23.25-20.25,24-38.25,0-17.25-7.5-30-23.25-37.5-9-5.25-18.75-6.75-28.5-6.75-18-.75-36,0-54-.75-3,0-4.5.75-3.75,4.5v132c0,2.25.75,3,2.25,3h23.25c2.25,0,3-.75,3-3v-42q0-4.5,4.5-4.5h9.75c3.75-.75,6,.75,8.25,3.75,9.75,12.75,19.5,25.5,28.5,39,3.75,5.25,8.25,7.5,15,7.5,8.25-.75,16.5-.75,26.25-.75-15-18-28.5-35.25-42.75-53.25h0Zm-348.75-16.5v65.25q0,4.5,3.75,4.5h21.75c2.25,0,3.75,0,3.75-3v-36.75c0-3.75.75-4.5,3.75-4.5h14.25c8.25,0,15.75.75,24-1.5,17.25-3.75,30-13.5,35.25-31.5,1.5-6,2.25-12.75,1.5-19.5-1.5-17.25-9.75-30-25.5-37.5-8.25-3.75-16.5-4.5-24.75-5.25h-53.25c-5.25,0-4.5,0-4.5,5.25v64.5h0Zm-875.25-252.75v45q0,6,6,6h72q6,0,6-6v-90.75q0-6-6-6h-72q-6,0-6,6v45.75h0Zm1192.5,0v46.5c0,4.5,0,5.25,5.25,5.25h70.5q6,0,6-6v-91.5q0-6-5.25-6h-70.5q-6,0-6,6.75v45h0Zm-346.5,322.5c-2.25-3-3-4.5-4.5-6-13.5-20.25-27-39.75-40.5-60q-3-4.5,0-8.25c12.75-19.5,25.5-39.75,38.25-59.25,1.5-1.5,3-3,3.75-6-9,0-18,.75-26.25,0-3.75,0-6,1.5-8.25,4.5-8.25,13.5-16.5,26.25-24.75,39.75-.75.75-.75,3-3,3-1.5-1.5-2.25-3.75-3.75-5.25-8.25-12.75-15.75-24.75-24-37.5-2.25-3-3.75-4.5-7.5-4.5-8.25.75-16.5,0-24.75,0-1.5,0-3-.75-3.75,1.5.75,1.5,2.25,3.75,3.75,5.25,12.75,20.25,26.25,39.75,39.75,59.25,3.75,5.25,3.75,3.75,0,9l-40.5,58.5c-.75,1.5-3,3-3,6h26.25c3.75.75,6-.75,8.25-3.75,8.25-13.5,16.5-26.25,25.5-39,.75-1.5,1.5-3.75,3.75-4.5.75,1.5,1.5,3,3,3.75,8.25,13.5,17.25,27,25.5,39.75,1.5,2.25,2.25,3.75,5.25,3.75h31.5Zm-165-81h-45c-2.25,0-4.5,0-4.5-3.75v-30c1.5-.75,2.25-.75,3.75-.75h55.5c2.25,0,3.75,0,3.75-2.25v-18.75c0-2.25-.75-3-2.25-3h-87c-2.25,0-3,.75-3,3v133.5c0,2.25,1.5,3,3.75,3h84q5.25,0,5.25-4.5v-14.25q0-4.5-5.25-4.5h-54.75c-3,0-3.75-1.5-3.75-3.75v-30.75c3.75-.75,6.75,0,10.5-.75h35.25c2.25,0,3.75.75,3.75-2.25v-20.25h0Zm336.75,11.25v64.5q0,5.25,5.25,5.25h83.25c3,0,3.75-.75,3.75-3.75v-14.25c0-6,.75-5.25-5.25-5.25h-51.75q-6.75,0-6.75-6v-21.75q0-7.5,7.5-7.5c12.75,0,26.25,0,39,.75,3,0,3.75-1.5,3.75-3.75v-12.75c0-7.5.75-6.75-7.5-6.75h-37.5c-3,0-5.25.75-5.25-3,.75-9.75,0-19.5,0-29.25,0-1.5.75-2.25,3-2.25h55.5q4.5,0,4.5-4.5v-14.25c0-4.5,0-5.25-4.5-5.25h-82.5c-4.5,0-4.5.75-4.5,5.25v64.5h0Zm391.5,51c.75.75,1.5,1.5,2.25,1.5,14.25,12,31.5,18,50.25,18.75,11.25.75,21.75,0,32.25-4.5,13.5-6,21.75-16.5,23.25-32.25s-4.5-28.5-18.75-36.75c-3.75-2.25-8.25-4.5-13.5-6-6-2.25-12.75-4.5-19.5-6.75-4.5-1.5-9-2.25-13.5-4.5-4.5-3-7.5-6.75-7.5-12.75s3-9.75,8.25-12c4.5-2.25,9.75-3,15-2.25,11.25.75,21.75,6,30,15,5.25-5.25,10.5-10.5,15.75-15,2.25-2.25,2.25-3.75-.75-6-.75-.75-1.5-2.25-3-3-14.25-11.25-30-16.5-48-15.75-12,0-23.25,3-32.25,11.25-18,14.25-19.5,46.5,3.75,60.75,4.5,2.25,9,4.5,14.25,6,6,2.25,12.75,4.5,18.75,6,5.25,2.25,10.5,3.75,15,6.75,4.5,2.25,6.75,6,7.5,11.25,0,7.5-3.75,12.75-12,15-17.25,3.75-33-1.5-46.5-12.75-1.5-.75-3-3-5.25-3.75-5.25,7.5-10.5,14.25-15.75,21.75h0Zm-58.5-39v-54.75c0-2.25.75-3,3-3h36.75c2.25,0,3-.75,3-3.75v-16.5c.75-3-.75-3.75-3.75-3.75h-108c-2.25,0-3,.75-3,3v18.75c0,1.5.75,2.25,2.25,2.25h36.75q3.75,0,4.5,4.5v107.25c-.75,3,.75,4.5,3.75,3.75h19.5q5.25,0,5.25-5.25v-52.5h0Z"/>
  <path class="cls-3" d="m1086,676.5c3-.75,5.25,0,8.25,0h224.25c14.25,0,27-3.75,38.25-12.75,19.5-15.75,27.75-36,21.75-60-5.25-24.75-21.75-39.75-46.5-45.75-9-1.5-18-.75-27-1.5-36.75-3.75-68.25-18-95.25-42.75-33-31.5-49.5-69.75-51-115.5-2.25-65.25,38.25-129.75,104.25-153.75,18.75-7.5,37.5-10.5,57-10.5,153-.75,305.25-.75,457.5,0,51.75,0,98.25,16.5,138.75,49.5,42,35.25,68.25,79.5,77.25,133.5,8.25,45,3,87.75-15.75,129-24,53.25-63,90.75-117,114-24.75,10.5-50.25,15.75-77.25,16.5h-3.75c-2.25.75-3.75,0-3.75-2.25.75-1.5,0-2.25,0-3.75v-90c0-.75.75-1.5,0-2.25,0-3,.75-3.75,3.75-3.75,8.25-.75,15.75-1.5,23.25-3,46.5-10.5,82.5-48,90.75-96,9.75-58.5-24.75-117-84-135-11.25-3.75-22.5-4.5-34.5-4.5h-453.75c-31.5,0-56.25,21-60.75,51-5.25,34.5,21.75,66.75,57.75,67.5,15.75.75,31.5,2.25,46.5,6.75,67.5,19.5,111.75,78,116.25,142.5,4.5,51.75-12.75,94.5-49.5,130.5-24.75,23.25-54,37.5-87.75,42.75-7.5.75-15,1.5-22.5,1.5h-231c-1.5,0-3,0-3.75-.75-.75-2.25-.75-5.25-.75-7.5v-93.75h0Z"/>
  <path class="cls-1" d="m1086,676.5v93.75c0,2.25,0,5.25.75,7.5-2.25.75-3.75.75-5.25.75h-156c-36.75,0-69.75-10.5-99-32.25-33.75-25.5-54-59.25-61.5-100.5-5.25-27.75-3.75-54.75,6-81.75,16.5-46.5,48-79.5,93.75-98.25,19.5-7.5,39-10.5,59.25-10.5,25.5-.75,43.5-12.75,54.75-35.25,15.75-33.75-5.25-75.75-42-82.5-5.25-1.5-10.5-1.5-15-1.5h-150.75c-3,0-6,0-9.75-.75.75-2.25.75-4.5.75-6.75v-94.5h159.75c27,0,52.5,5.25,76.5,18,28.5,14.25,50.25,35.25,66,63,11.25,18.75,17.25,39,20.25,60,3.75,29.25,0,57.75-12,84.75-8.25,18.75-18.75,35.25-33.75,49.5-15.75,15.75-33.75,28.5-54.75,36.75-19.5,7.5-39.75,10.5-60.75,11.25-30,0-56.25,22.5-59.25,54.75-2.25,27.75,15,55.5,45.75,63,5.25.75,10.5,1.5,16.5,1.5h152.25c2.25,0,5.25-.75,7.5,0h0Z"/>
  <path class="cls-3" d="m762,234v94.5c0,2.25,0,4.5-.75,6.75-2.25.75-5.25.75-7.5.75h-282.75c-8.25,0-17.25,0-25.5,1.5-54,9.75-95.25,54-98.25,109.5-3,47.25,17.25,84.75,57.75,110.25,17.25,11.25,36,15.75,55.5,17.25,6,0,5.25-.75,5.25,5.25v91.5q0,6-5.25,5.25c-54-1.5-101.25-20.25-141-55.5-36.75-32.25-60.75-72.75-69.75-120.75-15-76.5,4.5-144,58.5-200.25,31.5-33,70.5-53.25,114.75-62.25,15-3,29.25-4.5,44.25-4.5,96,.75,192.75.75,288.75.75h6Z"/>
  <path class="cls-3" d="m687,617.25v153.75c0,8.25,1.5,7.5-6.75,7.5h-91.5c-3,0-3.75-1.5-3.75-3.75v-210.75c0-8.25,1.5-6.75-6.75-6.75h-110.25c-1.5,0-2.25-.75-2.25-2.25v-96.75c0-2.25.75-3.75,3-3h213q5.25,0,5.25,5.25v156.75h0Z"/>
  <path class="cls-3" d="m1658.25,615v155.25c0,7.5.75,6.75-6.75,6.75h-92.25c-1.5,0-3-.75-3-3v-313.5c0-7.5-.75-6.75,7.5-6.75h91.5c2.25,0,3.75.75,3,3v158.25h0Z"/>
  <path class="cls-3" d="m1707.75,895.5c14.25,18,27.75,35.25,42.75,53.25-9.75,0-18,0-26.25.75-6.75,0-11.25-2.25-15-7.5-9-13.5-18.75-26.25-28.5-39-2.25-3-4.5-4.5-8.25-3.75h-9.75q-4.5,0-4.5,4.5v42c0,2.25-.75,3-3,3h-23.25c-1.5,0-2.25-.75-2.25-3v-132c-.75-3.75.75-4.5,3.75-4.5,18,.75,36,0,54,.75,9.75,0,19.5,1.5,28.5,6.75,15.75,7.5,23.25,20.25,23.25,37.5-.75,18-8.25,30.75-24,38.25-2.25.75-4.5,2.25-7.5,3h0Zm-49.5-40.5v17.25c0,3,.75,4.5,3.75,4.5,6.75-.75,13.5,0,20.25-.75,4.5,0,8.25,0,12-1.5,10.5-3,15.75-9.75,15.75-20.25s-5.25-17.25-15.75-20.25c-1.5,0-3.75-.75-6-.75-9,0-18,0-27-.75-2.25,0-3,.75-3,3.75v18.75h0Z"/>
  <path class="cls-3" d="m1359,879v-64.5c0-5.25-.75-5.25,4.5-5.25h53.25c8.25.75,16.5,1.5,24.75,5.25,15.75,7.5,24,20.25,25.5,37.5.75,6.75,0,13.5-1.5,19.5-5.25,18-18,27.75-35.25,31.5-8.25,2.25-15.75,1.5-24,1.5h-14.25c-3,0-3.75.75-3.75,4.5v36.75c0,3-1.5,3-3.75,3h-21.75q-3.75,0-3.75-4.5v-65.25h0Zm29.25-21.75v19.5q0,4.5,4.5,4.5c6.75,0,14.25,0,21.75-.75,3,0,6.75-.75,9.75-2.25,7.5-2.25,12-8.25,12.75-15.75,1.5-9,.75-18-6.75-24-1.5-1.5-3.75-2.25-5.25-3-3-1.5-6.75-2.25-10.5-2.25h-22.5c-3.75-.75-3.75,1.5-3.75,3.75v20.25h0Z"/>
  <path class="cls-1" d="m483.75,626.25v-45.75q0-6,6-6h72q6,0,6,6v90.75q0,6-6,6h-72q-6,0-6-6v-45h0Z"/>
  <path class="cls-1" d="m1676.25,626.25v-45q0-6.75,6-6.75h70.5q5.25,0,5.25,6v91.5q0,6-6,6h-70.5c-5.25,0-5.25-.75-5.25-5.25v-46.5h0Z"/>
  <path class="cls-3" d="m1329.75,948.75h-31.5c-3,0-3.75-1.5-5.25-3.75-8.25-12.75-17.25-26.25-25.5-39.75-1.5-.75-2.25-2.25-3-3.75-2.25.75-3,3-3.75,4.5-9,12.75-17.25,25.5-25.5,39-2.25,3-4.5,4.5-8.25,3.75h-26.25c0-3,2.25-4.5,3-6l40.5-58.5c3.75-5.25,3.75-3.75,0-9-13.5-19.5-27-39-39.75-59.25-1.5-1.5-3-3.75-3.75-5.25.75-2.25,2.25-1.5,3.75-1.5,8.25,0,16.5.75,24.75,0,3.75,0,5.25,1.5,7.5,4.5,8.25,12.75,15.75,24.75,24,37.5,1.5,1.5,2.25,3.75,3.75,5.25,2.25,0,2.25-2.25,3-3,8.25-13.5,16.5-26.25,24.75-39.75,2.25-3,4.5-4.5,8.25-4.5,8.25.75,17.25,0,26.25,0-.75,3-2.25,4.5-3.75,6-12.75,19.5-25.5,39.75-38.25,59.25q-3,3.75,0,8.25c13.5,20.25,27,39.75,40.5,60,1.5,1.5,2.25,3,4.5,6h0Z"/>
  <path class="cls-3" d="m1164.75,867.75v20.25c0,3-1.5,2.25-3.75,2.25h-35.25c-3.75.75-6.75,0-10.5.75v30.75c0,2.25.75,3.75,3.75,3.75h54.75q5.25,0,5.25,4.5v14.25q0,4.5-5.25,4.5h-84c-2.25,0-3.75-.75-3.75-3v-133.5c0-2.25.75-3,3-3h87c1.5,0,2.25.75,2.25,3v18.75c0,2.25-1.5,2.25-3.75,2.25h-55.5c-1.5,0-2.25,0-3.75.75v30c0,3.75,2.25,3.75,4.5,3.75h45Z"/>
  <path class="cls-3" d="m1501.5,879v-64.5c0-4.5,0-5.25,4.5-5.25h82.5c4.5,0,4.5.75,4.5,5.25v14.25q0,4.5-4.5,4.5h-55.5c-2.25,0-3,.75-3,2.25,0,9.75.75,19.5,0,29.25,0,3.75,2.25,3,5.25,3h37.5c8.25,0,7.5-.75,7.5,6.75v12.75c0,2.25-.75,3.75-3.75,3.75-12.75-.75-26.25-.75-39-.75q-7.5,0-7.5,7.5v21.75q0,6,6.75,6h51.75c6,0,5.25-.75,5.25,5.25v14.25c0,3-.75,3.75-3.75,3.75h-83.25q-5.25,0-5.25-5.25v-64.5h0Z"/>
  <path class="cls-3" d="m1893,930c5.25-7.5,10.5-14.25,15.75-21.75,2.25.75,3.75,3,5.25,3.75,13.5,11.25,29.25,16.5,46.5,12.75,8.25-2.25,12-7.5,12-15-.75-5.25-3-9-7.5-11.25-4.5-3-9.75-4.5-15-6.75-6-1.5-12.75-3.75-18.75-6-5.25-1.5-9.75-3.75-14.25-6-23.25-14.25-21.75-46.5-3.75-60.75,9-8.25,20.25-11.25,32.25-11.25,18-.75,33.75,4.5,48,15.75,1.5.75,2.25,2.25,3,3,3,2.25,3,3.75.75,6-5.25,4.5-10.5,9.75-15.75,15-8.25-9-18.75-14.25-30-15-5.25-.75-10.5,0-15,2.25-5.25,2.25-8.25,6-8.25,12s3,9.75,7.5,12.75c4.5,2.25,9,3,13.5,4.5,6.75,2.25,13.5,4.5,19.5,6.75,5.25,1.5,9.75,3.75,13.5,6,14.25,8.25,20.25,21,18.75,36.75s-9.75,26.25-23.25,32.25c-10.5,4.5-21,5.25-32.25,4.5-18.75-.75-36-6.75-50.25-18.75-.75,0-1.5-.75-2.25-1.5h0Z"/>
  <path class="cls-3" d="m1834.5,891v52.5q0,5.25-5.25,5.25h-19.5c-3,.75-4.5-.75-3.75-3.75v-107.25q-.75-4.5-4.5-4.5h-36.75c-1.5,0-2.25-.75-2.25-2.25v-18.75c0-2.25.75-3,3-3h108c3,0,4.5.75,3.75,3.75v16.5c0,3-.75,3.75-3,3.75h-36.75c-2.25,0-3,.75-3,3v54.75h0Z"/>
  <path class="cls-2" d="m1658.25,855v-18.75c0-3,.75-3.75,3-3.75,9,.75,18,.75,27,.75,2.25,0,4.5.75,6,.75,10.5,3,15.75,9.75,15.75,20.25s-5.25,17.25-15.75,20.25c-3.75,1.5-7.5,1.5-12,1.5-6.75.75-13.5,0-20.25.75-3,0-3.75-1.5-3.75-4.5v-17.25h0Z"/>
  <path class="cls-2" d="m1388.25,857.25v-20.25c0-2.25,0-4.5,3.75-3.75h22.5c3.75,0,7.5.75,10.5,2.25,1.5.75,3.75,1.5,5.25,3,7.5,6,8.25,15,6.75,24-.75,7.5-5.25,13.5-12.75,15.75-3,1.5-6.75,2.25-9.75,2.25-7.5.75-15,.75-21.75.75q-4.5,0-4.5-4.5v-19.5h0Z"/>
</svg>